<svg xmlns="http://www.w3.org/2000/svg" width="125" height="32" viewBox="0 0 125 32" fill="none">
  <path d="M123.628 8.42971C124.386 8.42971 125 9.04348 125 9.80059V20.2762C125 21.5523 124.689 22.7248 124.068 23.794C123.447 24.8631 122.601 25.708 121.531 26.3288C120.461 26.9496 119.288 27.26 118.011 27.26C116.751 27.26 115.586 26.9496 114.516 26.3288C113.464 25.708 112.627 24.8631 112.005 23.794C111.384 22.7248 111.074 21.5523 111.074 20.2762V9.8006C111.074 9.04348 111.688 8.42971 112.445 8.42971C113.203 8.42971 113.817 9.04348 113.817 9.8006V20.2762C113.817 21.0522 113.999 21.7678 114.361 22.4231C114.741 23.0611 115.25 23.5698 115.888 23.9491C116.544 24.3285 117.252 24.5182 118.011 24.5182C118.787 24.5182 119.495 24.3285 120.133 23.9491C120.789 23.5698 121.307 23.0611 121.687 22.4231C122.066 21.7678 122.256 21.0522 122.256 20.2762V9.80059C122.256 9.04347 122.87 8.42971 123.628 8.42971Z" fill="#010101"/>
  <path d="M106.19 17.4567C106.4 17.364 106.653 17.2879 106.923 17.2284C107.719 17.0532 108.387 16.4086 108.387 15.5943C108.387 14.7801 107.721 14.1143 106.923 14.2795C106.609 14.3444 106.303 14.4292 106.034 14.5339C105.327 14.8098 104.757 15.1374 104.326 15.5168V15.465C104.326 14.7222 103.723 14.12 102.98 14.12C102.236 14.12 101.634 14.7222 101.634 15.465V25.7079C101.634 26.4507 102.236 27.0529 102.98 27.0529C103.723 27.0529 104.326 26.4507 104.326 25.7079V20.1984C104.326 19.5777 104.49 19.0345 104.818 18.5689C105.163 18.0861 105.62 17.7153 106.19 17.4567Z" fill="black"/>
  <path d="M95.5554 18.0269C95.0204 17.3888 94.3387 16.9577 93.5104 16.7336C92.6993 16.4922 91.8882 16.5266 91.0771 16.837C90.2661 17.1129 89.6189 17.6044 89.1357 18.3114C88.6525 19.0184 88.4109 19.7943 88.4109 20.6393L95.5554 18.0269ZM86.6766 24.1312C85.969 22.9069 85.6584 21.6222 85.7447 20.2772C85.831 18.9149 86.271 17.6906 87.0649 16.6042C87.8587 15.5179 88.8855 14.7505 90.1453 14.3022C91.4223 13.8194 92.7079 13.7418 94.0022 14.0694C95.3138 14.3798 96.4268 15.0264 97.3415 16.0093C97.9294 16.6294 98.373 17.3353 98.6725 18.1269C98.9874 18.9596 98.4505 19.824 97.6139 20.13L86.6766 24.1312ZM97.2767 21.9584C98.1806 21.9584 98.8657 22.7984 98.4591 23.6051C98.2175 24.0843 97.914 24.5356 97.5486 24.9589C96.8065 25.8211 95.8746 26.4677 94.7529 26.8988C93.6139 27.2954 92.4577 27.3902 91.2842 27.1833C90.1107 26.9764 89.0581 26.5022 88.1262 25.7607C87.2115 25.002 86.5385 24.0536 86.1071 22.9155L88.6439 21.9843C88.9028 22.6568 89.3083 23.2259 89.8605 23.6914C90.4128 24.1398 91.0426 24.4243 91.7502 24.545C92.4577 24.6657 93.148 24.6054 93.821 24.364C94.4078 24.1398 94.9082 23.8208 95.3224 23.4069C95.4987 23.2378 95.6548 23.0572 95.7907 22.8651C96.1439 22.366 96.665 21.9584 97.2767 21.9584Z" fill="#010101"/>
  <path d="M72.1444 27.0531C71.401 27.0531 70.7983 26.4509 70.7983 25.708V19.94C70.7983 18.8364 71.0658 17.819 71.6008 16.8878C72.153 15.9567 72.8951 15.2238 73.827 14.6892C74.7588 14.1374 75.7856 13.8615 76.9074 13.8615C78.0118 13.8615 79.03 14.1374 79.9619 14.6892C80.8937 15.2238 81.6272 15.9567 82.1621 16.8878C82.7144 17.819 82.9905 18.8364 82.9905 19.94V25.708C82.9905 26.4509 82.3878 27.0531 81.6444 27.0531C80.901 27.0531 80.2984 26.4509 80.2984 25.708V19.94C80.2984 19.3192 80.1431 18.7502 79.8324 18.2329C79.5391 17.7155 79.1335 17.3103 78.6158 17.0172C78.0981 16.7068 77.5286 16.5516 76.9074 16.5516C76.2861 16.5516 75.708 16.7068 75.173 17.0172C74.6553 17.3103 74.2411 17.7155 73.9305 18.2329C73.6371 18.7502 73.4904 19.3192 73.4904 19.94V25.708C73.4904 26.4509 72.8878 27.0531 72.1444 27.0531Z" fill="#010101"/>
  <path d="M67.7058 10.3094C67.7058 11.3475 66.8636 12.1891 65.8247 12.1891C64.7858 12.1891 63.9436 11.3475 63.9436 10.3094C63.9436 9.27128 64.7858 8.42971 65.8247 8.42971C66.8636 8.42971 67.7058 9.27128 67.7058 10.3094Z" fill="#010101"/>
  <path d="M65.8786 27.0529C65.1352 27.0529 64.5325 26.4507 64.5325 25.7078V15.465C64.5325 14.7222 65.1352 14.12 65.8786 14.12C66.622 14.12 67.2246 14.7222 67.2246 15.465V25.7079C67.2246 26.4507 66.622 27.0529 65.8786 27.0529Z" fill="#010101"/>
  <path d="M43.9386 27.053C43.1952 27.053 42.5926 26.4508 42.5926 25.708V10.3861C42.5926 9.3056 43.4692 8.42971 44.5504 8.42971C45.2596 8.42971 45.9133 8.81286 46.2593 9.43133L51.5749 18.9312L56.9153 9.42893C57.2621 8.81176 57.9154 8.42971 58.6237 8.42971C59.7059 8.42971 60.5831 9.30629 60.5831 10.3876V25.708C60.5831 26.4509 59.9805 27.053 59.2371 27.053C58.4937 27.053 57.891 26.4509 57.891 25.708V12.5941L53.1814 21.2373C52.8613 21.8247 52.2455 22.1903 51.5762 22.1903C50.9055 22.1903 50.2887 21.8232 49.9692 21.234L45.2847 12.5941V25.708C45.2847 26.4509 44.682 27.053 43.9386 27.053Z" fill="#010101"/>
  <path d="M29.0766 2.17634C29.0766 3.3783 28.1014 4.35268 26.8986 4.35268C25.6957 4.35268 24.7205 3.3783 24.7205 2.17634C24.7205 0.974382 25.6957 0 26.8986 0C28.1014 0 29.0766 0.974382 29.0766 2.17634Z" fill="url(#paint0_linear_8505_1883)"/>
  <path d="M29.0766 2.17634C29.0766 3.3783 28.1014 4.35268 26.8986 4.35268C25.6957 4.35268 24.7205 3.3783 24.7205 2.17634C24.7205 0.974382 25.6957 0 26.8986 0C28.1014 0 29.0766 0.974382 29.0766 2.17634Z" fill="#010101"/>
  <path d="M21.6713 4.35268C21.6713 5.55465 20.6962 6.52903 19.4933 6.52903C18.2904 6.52903 17.3153 5.55465 17.3153 4.35268C17.3153 3.15072 18.2904 2.17634 19.4933 2.17634C20.6962 2.17634 21.6713 3.15072 21.6713 4.35268Z" fill="url(#paint1_linear_8505_1883)"/>
  <path d="M21.6713 4.35268C21.6713 5.55465 20.6962 6.52903 19.4933 6.52903C18.2904 6.52903 17.3153 5.55465 17.3153 4.35268C17.3153 3.15072 18.2904 2.17634 19.4933 2.17634C20.6962 2.17634 21.6713 3.15072 21.6713 4.35268Z" fill="#010101"/>
  <path fill-rule="evenodd" clip-rule="evenodd" d="M9.23274 14.7024C9.23274 18.483 11.0893 21.8302 13.941 23.8835C15.6461 22.3565 16.7189 20.1389 16.7189 17.6709V11.5741C16.7189 10.6559 17.3388 9.8532 18.2278 9.62045L29.3632 6.70487C30.6443 6.36944 31.8967 7.33522 31.8967 8.65857L31.8967 16.0769C31.8967 24.871 24.7622 32 15.9614 32L15.9353 32C7.1345 32 0 24.871 0 16.0769V10.9573C0 10.0356 0.624462 9.23081 1.51778 9.00125L6.70809 7.66744C7.98705 7.33877 9.23274 8.30389 9.23274 9.62344V14.7024ZM2.30996 16.0769C2.30996 19.1411 3.32297 21.9688 5.03259 24.2439C5.82946 25.3044 7.04597 26.011 8.37245 26.011C9.6352 26.011 10.8325 25.7308 11.9053 25.2292C8.8632 22.7318 6.92278 18.9436 6.92278 14.7024V9.99555L2.30996 11.181V16.0769Z" fill="url(#paint2_linear_8505_1883)"/>
  <path fill-rule="evenodd" clip-rule="evenodd" d="M9.23274 14.7024C9.23274 18.483 11.0893 21.8302 13.941 23.8835C15.6461 22.3565 16.7189 20.1389 16.7189 17.6709V11.5741C16.7189 10.6559 17.3388 9.8532 18.2278 9.62045L29.3632 6.70487C30.6443 6.36944 31.8967 7.33522 31.8967 8.65857L31.8967 16.0769C31.8967 24.871 24.7622 32 15.9614 32L15.9353 32C7.1345 32 0 24.871 0 16.0769V10.9573C0 10.0356 0.624462 9.23081 1.51778 9.00125L6.70809 7.66744C7.98705 7.33877 9.23274 8.30389 9.23274 9.62344V14.7024ZM2.30996 16.0769C2.30996 19.1411 3.32297 21.9688 5.03259 24.2439C5.82946 25.3044 7.04597 26.011 8.37245 26.011C9.6352 26.011 10.8325 25.7308 11.9053 25.2292C8.8632 22.7318 6.92278 18.9436 6.92278 14.7024V9.99555L2.30996 11.181V16.0769Z" fill="#010101"/>
  <defs>
    <linearGradient id="paint0_linear_8505_1883" x1="20.0082" y1="9.82554" x2="17.9642" y2="28.6593" gradientUnits="userSpaceOnUse">
      <stop stop-color="white"/>
      <stop offset="1" stop-color="#2E2E2E"/>
    </linearGradient>
    <linearGradient id="paint1_linear_8505_1883" x1="20.0082" y1="9.82554" x2="17.9642" y2="28.6593" gradientUnits="userSpaceOnUse">
      <stop stop-color="white"/>
      <stop offset="1" stop-color="#2E2E2E"/>
    </linearGradient>
    <linearGradient id="paint2_linear_8505_1883" x1="20.0082" y1="9.82554" x2="17.9642" y2="28.6593" gradientUnits="userSpaceOnUse">
      <stop stop-color="white"/>
      <stop offset="1" stop-color="#2E2E2E"/>
    </linearGradient>
  </defs>
</svg>
