<?xml version="1.0" encoding="utf-8"?>
<!-- Generator: Adobe Illustrator 24.1.2, SVG Export Plug-In . SVG Version: 6.00 Build 0)  -->
<svg version="1.1" xmlns="http://www.w3.org/2000/svg" xmlns:xlink="http://www.w3.org/1999/xlink" x="0px" y="0px"
	 viewBox="0 0 259.31 56" style="enable-background:new 0 0 259.31 56;" xml:space="preserve">
<style type="text/css">
	.st0{fill:#3A79B7;}
	.st1{fill:#C11D22;}
	.st2{fill:#5C666F;}
	.st3{fill:#EA6903;}
	.st4{fill:#E76A24;}
	.st5{display:none;}
	.st6{display:inline;}
	.st7{fill:#FFFFFF;}
	.st8{fill:#E56A24;}
	.st9{display:none;fill:#5C666F;}
	.st10{display:inline;fill:#5C666F;}
	.st11{fill:#256A78;}
	.st12{fill:#D12430;}
	.st13{display:inline;fill:#2D1996;}
	.st14{fill:#2D1996;}
	.st15{fill:#E86B24;}
	.st16{opacity:0.7;}
	.st17{fill-rule:evenodd;clip-rule:evenodd;fill:#EA6903;}
	.st18{display:none;fill:#E50E1F;}
	.st19{fill:#020202;}
	.st20{fill:#EE7204;}
	.st21{fill:#080808;}
	.st22{fill:#0A0A0A;}
	.st23{fill:#0B0B0B;}
	.st24{fill:#EF770C;}
	.st25{fill:#0F0F0F;}
	.st26{fill:#0C0C0C;}
	.st27{fill:#060606;}
	.st28{fill:#EF7B14;}
	.st29{fill:#B7B7B7;}
	.st30{fill:#768492;}
	.st31{fill:#FFFFFF;stroke:#FFFFFF;stroke-width:0.25;stroke-miterlimit:10;}
	.st32{fill:#3B79B7;}
	.st33{fill:#363535;}
	.st34{fill:#BED970;}
	.st35{fill:#E1368E;}
	.st36{fill:#E9E751;}
	.st37{fill:#8E499B;}
</style>
<symbol  id="New_Symbol_6" viewBox="-180.6 -40 361.2 80">
	<g>
		<g>
			<path class="st0" d="M35.23,26.18h3.78V8.3h9.03V4.94H35.23V26.18z"/>
			<path class="st0" d="M50.05,26.18h14.07v-3.3H53.83v-5.4h9.75V14.3h-9.75v-6h10.83V4.94H50.05V26.18z"/>
			<path class="st0" d="M75.28,26.18h3.27L87.7,4.94h-4.32L81.4,9.8h-9.21l-1.92-4.86h-4.23L75.28,26.18z M80.08,13.04l-3.27,8.64
				l-3.33-8.64H80.08z"/>
			<path class="st0" d="M89.54,26.18h7.38c1,0,1.97-0.1,2.91-0.31c0.94-0.21,1.77-0.56,2.5-1.04c0.73-0.48,1.31-1.11,1.75-1.89
				c0.44-0.78,0.66-1.73,0.66-2.85c0-1.54-0.43-2.8-1.31-3.76c-0.87-0.97-2.06-1.63-3.56-1.97l5.67-9.42H101l-4.92,9h-2.76v-9h-3.78
				V26.18z M96.41,17.03c0.54,0,1.08,0.04,1.62,0.12c0.54,0.08,1.02,0.23,1.46,0.45c0.43,0.22,0.78,0.53,1.07,0.94
				c0.28,0.41,0.42,0.93,0.42,1.57c0,0.58-0.13,1.05-0.39,1.43c-0.26,0.37-0.59,0.66-0.99,0.88c-0.4,0.22-0.85,0.37-1.36,0.45
				C97.71,22.96,97.22,23,96.74,23h-3.42v-5.97H96.41z"/>
			<path class="st0" d="M107.99,26.18H113l9.87-15.9h0.06v15.9h3.78V4.94h-4.8l-10.08,16.41h-0.06V4.94h-3.78V26.18z"/>
			<path class="st0" d="M130.98,26.18h3.78V4.94h-3.78V26.18z"/>
			<path class="st0" d="M139.04,26.18h5.01l9.87-15.9h0.06v15.9h3.78V4.94h-4.8l-10.08,16.41h-0.06V4.94h-3.78V26.18z"/>
			<path class="st0" d="M180.6,6.05c-1.08-0.52-2.26-0.93-3.56-1.22c-1.29-0.29-2.78-0.43-4.45-0.43c-1.72,0-3.29,0.28-4.71,0.83
				c-1.42,0.55-2.64,1.32-3.66,2.31c-1.02,0.99-1.82,2.17-2.39,3.54c-0.57,1.37-0.85,2.88-0.85,4.54c0,1.7,0.29,3.23,0.88,4.61
				c0.59,1.37,1.4,2.53,2.43,3.49c1.03,0.96,2.25,1.7,3.64,2.22c1.4,0.52,2.92,0.78,4.56,0.78c1.7,0,3.25-0.25,4.67-0.74
				c1.41-0.49,2.54-1.14,3.4-1.93l-2.61-2.82c-0.54,0.6-1.29,1.11-2.26,1.53c-0.97,0.42-2.03,0.63-3.17,0.63
				c-1.12,0-2.14-0.2-3.04-0.6c-0.91-0.4-1.69-0.95-2.33-1.65c-0.64-0.7-1.14-1.52-1.49-2.46c-0.35-0.94-0.52-1.96-0.52-3.06
				c0-1.14,0.17-2.19,0.52-3.14c0.35-0.95,0.85-1.78,1.5-2.47c0.65-0.7,1.44-1.25,2.37-1.64c0.93-0.39,1.98-0.58,3.17-0.58
				c1.62,0,3.03,0.25,4.23,0.75v5.4h-4.47v3.12h8.13V6.05z"/>
			<path class="st1" d="M35.23-3.82H49.3v-3.3H39.01v-5.4h9.75v-3.18h-9.75v-6h10.83v-3.36H35.23V-3.82z"/>
			<path class="st1" d="M53.08-3.82h5.01l9.87-15.9h0.06v15.9h3.78v-21.24H67L56.92-8.65h-0.06v-16.41h-3.78V-3.82z"/>
			<path class="st1" d="M94.64-23.95c-1.08-0.52-2.26-0.93-3.55-1.22c-1.29-0.29-2.78-0.43-4.46-0.43c-1.72,0-3.29,0.28-4.71,0.83
				c-1.42,0.55-2.64,1.32-3.66,2.31c-1.02,0.99-1.82,2.17-2.39,3.54c-0.57,1.37-0.85,2.88-0.85,4.54c0,1.7,0.29,3.23,0.89,4.61
				c0.59,1.37,1.4,2.53,2.43,3.49c1.03,0.96,2.24,1.7,3.64,2.22c1.4,0.52,2.92,0.78,4.56,0.78c1.7,0,3.25-0.25,4.66-0.74
				c1.41-0.49,2.54-1.14,3.4-1.93L92-8.77c-0.54,0.6-1.29,1.11-2.26,1.53c-0.97,0.42-2.02,0.63-3.16,0.63c-1.12,0-2.14-0.2-3.04-0.6
				c-0.91-0.4-1.69-0.95-2.33-1.65c-0.64-0.7-1.14-1.52-1.49-2.46c-0.35-0.94-0.53-1.96-0.53-3.06c0-1.14,0.18-2.19,0.53-3.14
				c0.35-0.95,0.85-1.78,1.5-2.47c0.65-0.7,1.44-1.25,2.37-1.64c0.93-0.39,1.98-0.58,3.16-0.58c1.62,0,3.03,0.25,4.23,0.75v5.4
				h-4.47v3.12h8.13V-23.95z"/>
			<path class="st1" d="M98.74-3.82h3.78V-21.7h9.03v-3.36H98.74V-3.82z"/>
			<path class="st1" d="M113.56-3.82h3.78v-21.24h-3.78V-3.82z"/>
			<path class="st1" d="M132.37-8.26c-0.4,0.52-0.97,0.95-1.69,1.31c-0.73,0.35-1.47,0.52-2.21,0.52c-0.44,0-0.88-0.06-1.32-0.17
				c-0.44-0.11-0.84-0.28-1.2-0.51c-0.36-0.23-0.66-0.53-0.89-0.9c-0.23-0.37-0.35-0.82-0.35-1.33c0-0.48,0.1-0.89,0.3-1.23
				c0.2-0.34,0.47-0.63,0.82-0.87c0.35-0.24,0.78-0.45,1.28-0.63c0.5-0.18,1.05-0.36,1.65-0.54c0.68-0.22,1.38-0.47,2.12-0.75
				c0.73-0.28,1.4-0.65,2.01-1.11c0.61-0.46,1.11-1.04,1.5-1.74c0.39-0.7,0.58-1.57,0.58-2.61c0-1.14-0.21-2.14-0.63-2.99
				c-0.42-0.85-0.98-1.56-1.68-2.11c-0.7-0.56-1.52-0.98-2.46-1.26c-0.94-0.28-1.93-0.42-2.97-0.42c-1.38,0-2.73,0.25-4.05,0.76
				c-1.32,0.51-2.4,1.26-3.24,2.26l2.7,2.52c0.52-0.72,1.21-1.29,2.08-1.71c0.87-0.42,1.73-0.63,2.57-0.63
				c0.44,0,0.89,0.06,1.35,0.17c0.46,0.11,0.87,0.29,1.24,0.56c0.37,0.26,0.67,0.58,0.9,0.97c0.23,0.39,0.34,0.87,0.34,1.46
				c0,0.56-0.13,1.02-0.39,1.39s-0.61,0.69-1.05,0.96c-0.44,0.27-0.96,0.5-1.56,0.7c-0.6,0.2-1.23,0.41-1.89,0.63
				c-0.64,0.2-1.28,0.44-1.92,0.72c-0.64,0.28-1.21,0.65-1.72,1.11c-0.51,0.46-0.93,1.02-1.25,1.7c-0.32,0.67-0.48,1.5-0.48,2.5
				c0,1.08,0.22,2.01,0.68,2.79c0.45,0.78,1.04,1.42,1.77,1.93c0.73,0.51,1.56,0.89,2.49,1.14c0.93,0.25,1.88,0.38,2.84,0.38
				c1.08,0,2.17-0.19,3.28-0.57c1.11-0.38,2.07-0.95,2.89-1.71L132.37-8.26z"/>
			<path class="st1" d="M138.19-3.82h3.78v-8.58h9.93v8.58h3.78v-21.24h-3.78v9.42h-9.93v-9.42h-3.78V-3.82z"/>
		</g>
		<g id="VOA_7_">
			<path id="V_44_" class="st0" d="M-121.93-0.01c0,19.14,13,35.23,30.64,39.94l0.02,0.06h-34.6l-12.68-47.33L-151.23,40h-29.37
				l29.12-80h31.1l5.93,16.28C-119.17-17-121.93-8.83-121.93-0.01z"/>
			<path id="O_44_" class="st0" d="M-80.61,20c-11.04,0-20-8.96-20-20c0-11.05,8.96-20,20-20c11.05,0,20,8.95,20,20
				C-60.6,11.04-69.56,20-80.61,20z"/>
			<path id="A_44_" class="st0" d="M-39.27,0.01c0-19.14-13-35.23-30.64-39.94L-69.93-40h34.6l12.68,47.33L-9.97-40H19.4L-9.72,40
				h-31.1l-5.93-16.28C-42.03,17-39.27,8.83-39.27,0.01z"/>
		</g>
	</g>
</symbol>
<g id="afghan_x5F_da">
</g>
<g id="afghan_x5F_eng">
</g>
<g id="afghan_x5F_pa">
</g>
<g id="armenian">
</g>
<g id="armenian_x5F_ru">
</g>
<g id="azeri">
</g>
<g id="azeri_x5F_ru">
</g>
<g id="balkan">
</g>
<g id="belarussian">
</g>
<g id="bulgarian">
</g>
<g id="crimea_x5F_ru">
</g>
<g id="crimea_x5F_ta">
</g>
<g id="crimea_x5F_ua">
</g>
<g id="donbass_x5F_ru_-_not_full">
</g>
<g id="donbass_x5F_ua_-_not_full">
</g>
<g id="English">
</g>
<g id="georgian">
</g>
<g id="georgian_x5F_ru">
</g>
<g id="kazakh">
</g>
<g id="kazakh_x5F_ru">
</g>
<g id="kosovo">
</g>
<g id="kyrgyz">
</g>
<g id="kyrgyz_x5F_ru">
</g>
<g id="macedonia">
</g>
<g id="moldova">
	<g id="Layer_60">
	</g>
	<g id="Layer_61">
	</g>
	<g id="Layer_62">
	</g>
</g>
<g id="north_x5F_caucasus_x5F_av_-_not_full">
</g>
<g id="north_x5F_caucasus_x5F_ch">
</g>
<g id="north_x5F_caucasus_x5F_ru">
</g>
<g id="pakistan">
</g>
<g id="perssian">
</g>
<g id="perssian_x5F_eng">
</g>
<g id="romanian">
	<g id="Layer_57">
	</g>
	<g id="Layer_59">
	</g>
	<g id="Layer_58">
	</g>
</g>
<g id="russia">
</g>
<g id="Siberia">
</g>
<g id="tajik">
</g>
<g id="tajik_x5F_ru">
</g>
<g id="tatar_x5F_bashkir">
</g>
<g id="tatar_x5F_bashkir_x5F_ru">
</g>
<g id="turkmen">
</g>
<g id="turkmen_x5F_ru">
</g>
<g id="ukrainian">
</g>
<g id="uzbek">
</g>
<g id="uzbek_x5F_ru">
</g>
<g id="Sizdan_Telegram_just_video">
</g>
<g id="Severreal">
</g>
<g id="hungarian">
</g>
<g id="theHUB">
</g>
<g id="Faktograf">
</g>
<g id="logos_-_RU">
</g>
<g id="Mobile">
	<g id="Change_5_">
	</g>
</g>
<g id="Desktop">
</g>
<g id="showcase">
</g>
<g id="logos_-_EN">
</g>
<g id="labels">
</g>
<g id="Layer_1">
	
		<use xlink:href="#New_Symbol_6"  width="361.2" height="80" id="XMLID_31_" x="-180.6" y="-40" transform="matrix(0.7 0 0 -0.7 129.6568 28)" style="overflow:visible;"/>
</g>
<g id="Screen">
</g>
<g id="Isolation_Mode">
</g>
<g id="dandalin_voa_logo">
</g>
</svg>
