<svg xmlns="http://www.w3.org/2000/svg" xmlns:xlink="http://www.w3.org/1999/xlink" width="220" height="100" viewBox="0 0 220 100">
  <g>
    <path d="M105.5,83.4V42.8H91.1v40.7H105.5z M98.3,41.6c4.1,0,7.4-3.3,7.4-7.4s-3.3-7.4-7.4-7.4
			c-4.1,0-7.4,3.3-7.4,7.4S94.2,41.6,98.3,41.6z M60.4,13v25.4L24.3,83.4H4L60.4,13z M84.3,13v25.4L48.2,83.4l-0.1-25L84.3,13
			L84.3,13z M84.3,43v40.4H69.9V60.8L84.3,43L84.3,43z M106.2,54.4L129,26v16.8h10.6v11.6H129V67c0,2,0.8,4,3.7,4h6.9v12.4h-15.4
			c-4.4,0-10.4-4-10.4-11.1V54.4H106.2L106.2,54.4z" fill="#fff" />
    <path d="M215.9,51c-4.2-6.2-11.5-10.4-19.9-10.4c-13,0-23.6,10-23.6,22.3c0,12.3,10.6,22.3,23.6,22.3
			c11.7,0,21.4-8,23.2-18.6l-14.4,0.1c-1.5,3.4-4.8,5.7-8.8,5.7c-5.3,0-9.6-4.3-9.6-9.6c0-5.3,4.3-9.6,9.6-9.6l0,0
			c0.8,0,1.6,0.1,2.3,0.3l-9.7,11.9h15.7L215.9,51L215.9,51z" fill="#fff" />
  </g>
  <g>
    <path d="M146.8,80.7c-2.2-2.6-3.4-6.5-3.4-11.8V54.6c0-4,0.4-7.3,1.3-9.8c0.9-2.5,2.3-4.4,4.4-5.7s4.9-1.9,8.5-1.9
			c4,0,7.2,1,9.7,3.1c2.5,2.1,3.7,5,3.7,8.7v7.1h-11.3v-6.5c0-1.2-0.2-2.2-0.5-2.8c-0.3-0.7-1-1-2-1c-1.8,0-2.7,1.3-2.7,3.9v22.5
			c0,1.1,0.2,2,0.7,2.7c0.4,0.7,1.1,1.1,2,1.1s1.6-0.4,2-1.1c0.4-0.7,0.6-1.6,0.6-2.8l-0.1-7.8h11.3v8.1c0,3.8-1.2,6.8-3.7,9
			c-2.5,2.2-5.7,3.3-9.6,3.3C152.7,84.6,149.1,83.3,146.8,80.7z" fill="#fff" />
  </g>
</svg>
