<svg width="500" height="500" xmlns="http://www.w3.org/2000/svg">
 <defs>
  <filter id="_blur">
   <feGaussianBlur stdDeviation="0" in="SourceGraphic"/>
  </filter>
 </defs>
 <g>
  <title>Layer 1</title>
  <ellipse stroke-width="0" ry="250" rx="250" id="svg_3" cy="250.00001" cx="250" stroke="#000" fill="#ffffff"/>
  <g stroke="null" filter="url(#_blur)" id="svg_1">
   <path stroke="null" p-id="4622" fill="#66B2F6" d="m381.95121,423.75559l-204.49185,0l0,-34.20233l187.47422,0l0,-234.0117c-21.30207,-36.94497 -48.41015,-54.97379 -82.7257,-55.09479l-0.32033,0c-35.0363,0 -64.06637,18.83548 -88.65184,57.51477l-68.99148,259.09879l-32.79397,-8.87325l69.63214,-261.59943c0.44046,-1.65365 1.12116,-3.1863 2.00207,-4.63829c31.15227,-50.21451 71.11367,-75.70492 118.76304,-75.70492l0.44046,0c48.20995,0.16133 86.72985,25.89375 114.51864,76.51158c1.40145,2.54098 2.1222,5.36428 2.1222,8.26825l0,255.63015c0,9.43791 -7.60788,17.10117 -16.97759,17.10117l-0.00001,0z" id="svg_2"/>
   <path stroke="null" p-id="4623" fill="#7EDBFE" d="m277.68319,185.99292m-16.97759,0a16.97759,17.10117 0 1 0 33.95518,0a16.97759,17.10117 0 1 0 -33.95518,0z" id="svg_4"/>
   <path stroke="null" p-id="4624" fill="#7BF2FC" d="m141.78239,168.89176c-28.10912,0 -50.93277,-23.03011 -50.93277,-51.3035s22.86369,-51.34383 50.93277,-51.34383s50.97281,23.03011 50.97281,51.3035s-22.86369,51.34383 -50.97281,51.34383zm0,-68.44499c-9.36971,0 -16.97759,7.66326 -16.97759,17.10117s7.60788,17.10117 16.97759,17.10117s16.97759,-7.66326 16.97759,-17.10117s-7.60788,-17.10117 -16.97759,-17.10117z" id="svg_5"/>
   <path stroke="null" p-id="4625" fill="#7BF2FC" d="m107.82721,254.39759c-28.10912,0 -50.93277,-23.03011 -50.93277,-51.3035s22.82365,-51.3035 50.93277,-51.3035s50.97281,22.98977 50.97281,51.3035s-22.86369,51.3035 -50.97281,51.3035zm0,-68.40466c-9.36971,0 -16.97759,7.66326 -16.97759,17.10117s7.60788,17.10117 16.97759,17.10117s16.97759,-7.66326 16.97759,-17.10117s-7.60788,-17.10117 -16.97759,-17.10117z" id="svg_6"/>
   <path stroke="null" p-id="4626" fill="#66B2F6" d="m379.58876,117.54793l35.5168,0l0,34.20233l-35.5168,0l0,-34.20233z" id="svg_7"/>
  </g>
 </g>
</svg>